<?xml version="1.0" standalone="no"?>
<!DOCTYPE svg PUBLIC "-//W3C//DTD SVG 20010904//EN"
 "http://www.w3.org/TR/2001/REC-SVG-20010904/DTD/svg10.dtd">
<svg version="1.0" xmlns="http://www.w3.org/2000/svg"
 width="225.000000pt" height="225.000000pt" viewBox="0 0 225.000000 225.000000"
 preserveAspectRatio="xMidYMid meet">

<g transform="translate(0.000000,225.000000) scale(0.100000,-0.100000)"
fill="#000000" stroke="none">
<path d="M1015 2244 c-176 -27 -298 -65 -424 -132 -99 -53 -147 -88 -235 -171
-265 -253 -391 -599 -345 -952 33 -250 131 -456 304 -637 99 -105 181 -166
298 -225 122 -61 219 -92 348 -111 132 -20 198 -20 319 -1 139 21 203 40 316
94 127 61 207 115 299 203 356 337 451 854 240 1295 -56 119 -110 197 -197
288 -208 220 -473 339 -778 349 -63 3 -128 2 -145 0z m65 -84 c11 -11 20 -31
20 -45 0 -44 -53 -79 -86 -57 -15 10 -34 47 -34 66 0 22 36 56 60 56 11 0 29
-9 40 -20z m91 -12 l13 -32 8 32 c13 48 28 38 28 -17 0 -91 -20 -106 -50 -38
l-20 42 0 -37 c0 -27 -4 -38 -15 -38 -12 0 -15 13 -15 60 0 52 2 60 19 60 11
0 24 -12 32 -32z m159 -8 c0 -9 3 -38 6 -64 5 -33 3 -46 -6 -46 -6 0 -14 9
-17 20 -6 24 -38 26 -47 3 -5 -11 -10 -13 -17 -6 -7 7 -2 28 17 65 21 43 31
54 45 51 11 -3 19 -13 19 -23z m-371 -30 c14 -65 14 -70 -2 -70 -8 0 -18 21
-25 51 -15 64 -15 69 2 69 9 0 18 -19 25 -50z m-69 32 c0 -4 -5 -13 -10 -18
-8 -8 -8 -19 0 -38 5 -15 10 -36 10 -47 0 -34 -24 -16 -33 25 -7 27 -17 40
-36 48 l-26 10 30 14 c34 15 65 18 65 6z m513 -53 c-10 -38 -9 -42 8 -46 28
-8 17 -29 -12 -25 -36 4 -41 16 -29 63 18 72 19 74 32 61 9 -9 9 -22 1 -53z
m-596 -28 c25 -39 29 -50 18 -55 -8 -3 -18 2 -23 11 -12 20 -32 8 -32 -18 0
-10 -7 -19 -15 -19 -8 0 -15 8 -15 19 0 10 -3 39 -6 65 -6 44 -6 46 17 46 18
0 33 -14 56 -49z m737 30 c3 -5 -1 -25 -9 -45 -19 -44 -19 -56 0 -56 8 0 24
18 35 40 20 39 30 47 43 34 10 -10 -31 -82 -54 -94 -16 -9 -26 -8 -45 5 -28
18 -29 26 -8 82 16 42 27 52 38 34z m-848 -72 c31 -61 21 -82 -23 -52 -50 35
-53 35 -33 -1 33 -54 5 -54 -30 0 -16 27 -30 52 -30 56 0 22 34 18 67 -8 l38
-29 -22 37 c-20 34 -21 48 -2 48 5 0 20 -23 35 -51z m984 -31 l0 -41 21 27
c37 48 44 14 8 -38 -45 -63 -63 -61 -57 4 l5 51 -21 -35 c-13 -21 -26 -32 -32
-28 -8 5 -2 23 18 59 35 62 58 62 58 1z m-340 -19 c173 -44 357 -163 464 -300
254 -324 254 -767 0 -1088 -113 -143 -290 -256 -474 -302 -121 -31 -302 -30
-420 1 -153 40 -290 119 -401 229 -167 168 -252 374 -253 616 0 172 34 300
121 447 52 88 168 215 244 266 214 145 475 192 719 131z m-793 -64 c28 -12 34
-18 25 -27 -9 -9 -18 -9 -37 0 -26 12 -33 4 -14 -15 6 -6 8 -16 4 -23 -8 -13
-35 8 -67 52 -23 34 -15 57 12 33 18 -16 18 -16 13 4 -3 12 1 29 8 38 13 15
14 13 17 -15 3 -26 10 -35 39 -47z m1212 -9 c-31 -41 -59 -59 -59 -38 0 5 16
30 37 56 24 31 40 43 46 37 7 -7 -2 -25 -24 -55z m76 14 c3 -5 -3 -27 -14 -49
l-20 -39 39 21 c30 17 42 19 51 10 9 -9 -1 -18 -44 -39 -81 -38 -92 -30 -59
45 26 60 35 70 47 51z m-1363 -83 c12 -24 -15 -67 -42 -67 -27 0 -95 63 -86
79 5 8 18 3 42 -19 19 -16 39 -30 44 -30 22 0 18 22 -11 54 -39 45 -29 69 13
29 16 -15 34 -36 40 -46z m1468 -32 c18 -19 21 -28 12 -37 -9 -9 -13 -7 -18 5
-3 9 -13 17 -20 17 -12 0 -12 -4 -4 -20 14 -27 2 -47 -14 -24 -8 10 -18 14
-25 10 -9 -6 -8 -13 5 -27 16 -18 16 -19 -2 -19 -11 0 -25 10 -32 21 -12 19
-10 25 24 60 21 22 41 39 44 39 4 0 17 -11 30 -25z m-1593 -25 c3 -11 9 -18
13 -15 4 2 16 -2 26 -9 18 -14 18 -16 1 -51 -11 -23 -21 -34 -30 -29 -6 4 -31
20 -55 36 l-42 29 20 30 c25 34 59 38 67 9z m1659 -65 c20 -31 15 -59 -13 -63
-11 -2 -29 -12 -39 -23 -9 -10 -21 -19 -26 -19 -14 0 -9 22 10 43 17 19 16 19
-15 12 -21 -4 -33 -3 -33 4 0 10 78 70 92 71 4 0 15 -11 24 -25z m-1666 -82
c0 -9 -16 -13 -47 -13 l-48 -1 30 -16 c39 -20 38 -20 30 -32 -4 -7 -24 -2 -58
15 -65 33 -62 30 -46 50 10 12 23 14 54 10 34 -5 37 -3 22 7 -45 29 -50 35
-43 45 8 14 106 -46 106 -65z m1732 -28 c14 -30 2 -47 -16 -22 -19 24 -24 21
-28 -15 -2 -27 -8 -34 -30 -36 -21 -3 -30 3 -43 27 -13 26 -13 31 -1 31 7 0
16 -7 20 -15 9 -25 26 -17 26 13 0 35 6 42 37 42 15 0 27 -9 35 -25z m-1834
-45 c54 -33 36 -100 -29 -100 -30 0 -69 30 -69 54 0 18 39 66 53 66 7 0 27 -9
45 -20z m1872 -39 c0 -8 -94 -51 -111 -51 -5 0 -9 6 -9 14 0 7 24 22 53 33 50
20 67 21 67 4z m26 -82 c10 -31 9 -39 -1 -39 -7 0 -15 5 -17 11 -3 9 -14 9
-41 0 -21 -7 -46 -10 -55 -6 -15 6 -14 8 8 20 14 8 33 14 43 15 10 0 22 12 28
26 12 32 20 26 35 -27z m-1998 -4 c-6 -31 11 -45 19 -16 3 12 12 21 19 21 10
0 13 -7 8 -25 -8 -31 13 -34 24 -4 7 17 10 18 19 7 12 -15 0 -58 -16 -58 -26
0 -111 23 -111 29 0 5 5 22 11 40 13 37 33 42 27 6z m2001 -93 l-23 -16 24 -6
c14 -3 26 -13 28 -23 3 -15 0 -15 -38 -2 -23 8 -53 12 -66 9 -17 -5 -24 -2
-24 9 0 9 12 18 29 22 16 3 39 17 52 31 20 21 24 23 32 8 7 -12 3 -20 -14 -32z
m-1951 -18 c23 -15 28 -39 13 -63 -12 -19 -30 -5 -24 18 5 19 -19 31 -64 31
-16 0 -23 6 -23 19 0 17 5 19 38 14 20 -3 47 -12 60 -19z m-43 -144 c8 -25 -3
-80 -16 -80 -13 0 -22 46 -15 75 8 30 22 32 31 5z m1991 -5 c7 -29 -2 -75 -15
-75 -5 0 -12 13 -16 30 -12 55 18 98 31 45z m-2011 -126 c4 -5 18 4 32 21 28
34 43 38 43 13 0 -20 -48 -73 -66 -73 -21 0 -74 51 -74 72 0 19 1 19 30 -2 16
-11 32 -25 35 -31z m1967 22 l24 -28 35 30 c29 27 34 29 37 13 4 -20 -32 -63
-61 -72 -23 -7 -77 40 -77 68 0 26 15 22 42 -11z m-1882 -71 c0 -26 -32 -70
-55 -76 -30 -7 -71 16 -80 46 -10 32 -2 33 37 6 l36 -24 21 29 c22 29 41 38
41 19z m1872 -20 c19 -26 24 -28 37 -16 9 7 26 19 39 25 18 10 22 9 22 -4 0
-23 -45 -65 -70 -65 -25 0 -70 46 -70 71 0 28 16 23 42 -11z m-1852 -59 c0
-19 -19 -58 -35 -74 -24 -25 -50 -21 -87 12 -42 37 -31 50 21 23 l40 -21 20
35 c19 32 41 45 41 25z m1831 -25 l20 -35 40 21 c52 27 63 14 21 -23 -44 -39
-75 -38 -101 5 -23 36 -27 66 -11 66 6 0 20 -16 31 -34z m-1811 -80 c0 -14
-10 -37 -23 -52 -19 -22 -29 -26 -51 -20 -14 3 -36 16 -49 29 -19 19 -20 22
-5 25 9 2 30 -4 46 -12 28 -15 29 -14 45 20 19 40 37 45 37 10z m1787 -10 c16
-34 17 -35 45 -20 16 8 37 14 46 12 15 -3 14 -6 -5 -25 -13 -13 -35 -26 -49
-29 -22 -6 -32 -2 -51 20 -23 27 -32 76 -13 76 6 0 18 -15 27 -34z m-1758 -99
c-13 -49 -38 -62 -83 -43 -64 27 -61 59 4 33 37 -14 40 -14 40 2 0 24 31 64
41 54 5 -5 4 -25 -2 -46z m1731 -7 c0 -17 2 -17 40 -3 65 26 68 -6 4 -33 -44
-18 -68 -6 -84 41 -15 46 -3 66 22 36 10 -13 18 -31 18 -41z m-1691 -87 c-19
-50 -62 -57 -105 -18 l-29 27 35 -5 c19 -3 42 -8 50 -11 11 -5 16 0 17 16 1
12 8 33 15 46 12 24 12 24 22 3 6 -14 4 -33 -5 -58z m1641 13 c0 -23 3 -27 18
-21 9 4 33 9 52 12 l35 5 -28 -26 c-17 -16 -40 -26 -58 -26 -25 0 -33 6 -45
36 -9 21 -13 48 -9 62 6 23 7 24 20 6 8 -11 15 -32 15 -48z m-1580 -51 c0 -70
-48 -101 -107 -70 -46 25 -29 43 27 28 39 -10 40 -9 40 14 0 31 18 65 31 58 5
-4 9 -17 9 -30z m1530 -26 c0 -26 1 -26 40 -16 56 15 73 -3 27 -28 -42 -22
-79 -15 -95 20 -13 29 -16 68 -5 79 11 11 33 -25 33 -55z m-1476 -74 c-3 -16
-11 -36 -16 -42 -20 -25 -108 -9 -108 19 0 7 16 9 45 6 44 -5 45 -5 45 22 0
16 3 36 7 46 11 30 35 -14 27 -51z m1410 49 c3 -9 6 -28 6 -44 0 -27 1 -27 45
-22 29 3 45 1 45 -6 0 -28 -88 -44 -107 -19 -15 18 -23 60 -16 85 6 26 18 29
27 6z m-1344 -110 c0 -18 -7 -40 -16 -48 -18 -19 -66 -21 -96 -5 -28 15 -7 29
44 29 31 0 35 3 31 20 -3 11 -2 32 2 47 6 27 7 27 21 9 8 -11 14 -34 14 -52z
m1288 5 c-4 -27 -3 -29 31 -29 50 0 70 -14 43 -29 -30 -16 -78 -14 -96 5 -19
18 -21 66 -5 96 11 20 12 20 21 4 6 -10 8 -31 6 -47z m-1218 -71 c0 -27 -5
-40 -19 -48 -25 -13 -88 -13 -96 0 -8 13 43 33 68 26 16 -4 17 0 12 25 -4 15
-3 38 1 51 6 21 7 21 20 3 8 -10 14 -36 14 -57z m1146 7 c-6 -29 -4 -33 12
-29 24 7 75 -13 67 -26 -8 -13 -71 -13 -96 0 -22 12 -26 68 -8 102 11 20 12
20 21 4 6 -10 7 -33 4 -51z m-1016 -56 c0 -6 -12 -33 -27 -60 -20 -37 -29 -46
-39 -38 -10 8 -9 17 7 42 21 35 25 52 9 42 -5 -3 -10 1 -10 9 0 11 9 16 30 16
17 0 30 -5 30 -11z m919 -30 c33 -29 41 -43 33 -51 -8 -8 -15 -8 -26 2 -21 16
-44 6 -48 -21 -7 -47 -26 -30 -33 30 -11 94 5 103 74 40z m-841 -1 c17 -17 15
-59 -4 -86 -18 -26 -65 -30 -85 -5 -13 15 -11 16 13 11 15 -3 33 -1 40 3 10 7
9 9 -3 9 -29 0 -43 27 -31 55 13 27 49 34 70 13z m722 -7 c0 -5 -9 -13 -20
-16 -29 -9 -25 -28 5 -21 18 5 25 2 25 -8 0 -7 -9 -16 -21 -19 -12 -3 -18 -10
-14 -16 3 -6 17 -8 31 -5 37 9 30 -15 -8 -28 -41 -14 -41 -14 -54 25 -27 77
-27 77 -2 86 30 13 58 13 58 2z m-613 -71 c-2 -31 -10 -57 -20 -68 -17 -16
-18 -16 -23 6 -4 12 -14 22 -25 22 -35 0 -32 22 7 56 55 47 64 44 61 -16z
m123 11 c0 -3 -16 -30 -35 -58 -24 -36 -40 -50 -50 -47 -12 5 -9 14 15 48 l31
41 -23 9 c-31 13 -31 13 -24 24 6 11 86 -5 86 -17z m385 -1 c0 -14 8 -34 18
-44 9 -11 17 -23 17 -28 0 -14 -38 -8 -44 7 -8 23 -33 18 -32 -6 1 -12 -4 -24
-11 -26 -13 -5 -38 100 -28 117 4 6 23 10 43 8 32 -3 37 -6 37 -28z m-307 -19
l4 -23 14 21 c9 12 22 21 30 21 18 0 18 -9 -2 -31 -15 -17 -15 -21 6 -54 20
-33 20 -35 3 -35 -10 0 -26 12 -35 28 -17 26 -17 26 -18 4 0 -21 -24 -41 -36
-29 -10 10 9 128 20 124 6 -2 12 -14 14 -26z m187 9 c36 -40 7 -110 -46 -110
-26 0 -59 35 -59 63 0 59 67 89 105 47z"/>
<path d="M1016 2134 c-8 -20 10 -54 28 -54 18 0 26 22 19 49 -6 25 -38 28 -47
5z"/>
<path d="M1290 2104 c0 -8 5 -12 10 -9 6 4 8 11 5 16 -9 14 -15 11 -15 -7z"/>
<path d="M760 2054 c0 -8 5 -12 10 -9 6 4 8 11 5 16 -9 14 -15 11 -15 -7z"/>
<path d="M997 1950 c-273 -49 -497 -213 -616 -448 -248 -490 35 -1079 574
-1193 272 -57 555 25 753 221 411 405 303 1082 -215 1343 -94 48 -218 78 -338
82 -60 2 -132 0 -158 -5z m73 -395 l0 -295 -41 0 -41 0 6 78 c3 42 8 166 12
274 l6 198 27 20 c14 10 27 20 29 20 1 0 2 -133 2 -295z m174 58 c4 -109 9
-233 12 -275 l6 -78 -41 0 -41 0 0 296 0 295 29 -20 29 -21 6 -197z m-269 -75
c-3 -134 -9 -251 -11 -260 -4 -13 -16 -18 -41 -18 l-36 0 6 73 c3 39 11 146
18 237 11 159 13 166 38 187 14 13 28 23 30 23 2 0 0 -109 -4 -242z m363 35
c7 -92 16 -201 19 -240 l6 -73 -36 0 c-25 0 -37 5 -41 18 -2 9 -8 127 -11 261
l-7 244 29 -21 29 -20 12 -169z m-457 -42 c-6 -80 -14 -174 -17 -208 l-6 -63
-39 0 c-37 0 -38 1 -34 28 3 15 14 106 25 202 18 168 20 176 47 199 26 22 28
23 32 6 2 -10 -2 -84 -8 -164z m528 145 c7 -8 21 -92 31 -188 11 -95 22 -185
25 -200 4 -27 3 -28 -35 -28 -25 0 -40 5 -40 13 0 6 -7 91 -15 187 -8 96 -15
192 -15 213 0 33 2 37 18 28 10 -5 24 -17 31 -25z m-299 -506 c0 -27 -2 -50
-5 -50 -2 0 -27 5 -54 11 -50 10 -161 -3 -161 -19 0 -4 -9 -61 -20 -127 -11
-66 -20 -125 -20 -131 0 -8 25 -10 83 -7 75 4 86 2 137 -24 l55 -28 55 28 c51
27 61 29 138 24 57 -3 82 -1 82 7 0 6 -9 65 -20 131 -11 66 -20 123 -20 127 0
16 -111 29 -161 19 -27 -6 -52 -11 -54 -11 -3 0 -5 23 -5 50 l0 50 215 0 215
0 0 -60 c0 -53 -2 -60 -20 -60 -18 0 -20 -7 -20 -83 0 -145 -31 -264 -92 -355
l-29 -42 35 -15 c19 -8 42 -15 51 -15 24 0 18 -13 -28 -58 l-42 -41 -51 23
c-45 21 -52 22 -70 9 -26 -20 -136 -73 -151 -73 -9 0 -13 17 -13 53 l0 53 46
22 c53 26 135 100 166 149 17 29 18 37 7 44 -33 21 -134 -2 -198 -44 l-36 -24
-35 24 c-61 42 -166 65 -199 44 -32 -20 75 -140 166 -188 l53 -28 0 -52 c0
-36 -4 -53 -12 -53 -16 0 -126 53 -153 73 -17 13 -23 13 -47 1 -71 -37 -74
-36 -118 9 -43 46 -48 57 -25 57 9 0 32 7 51 15 l35 15 -28 42 c-64 97 -93
206 -93 354 0 77 -2 84 -20 84 -18 0 -20 7 -20 60 l0 60 215 0 215 0 0 -50z
m-17 -73 c26 -11 37 -11 62 -1 32 14 153 18 172 6 10 -6 43 -167 43 -212 0
-18 -5 -20 -39 -14 -46 7 -132 -10 -178 -37 -18 -10 -35 -14 -38 -9 -13 20
-146 53 -191 46 -39 -5 -44 -3 -44 14 0 45 33 206 43 212 20 13 136 9 170 -5z"/>
<path d="M306 1751 c-4 -5 -2 -12 3 -15 5 -4 12 -2 15 3 4 5 2 12 -3 15 -5 4
-12 2 -15 -3z"/>
<path d="M342 1718 c6 -18 28 -21 28 -4 0 9 -7 16 -16 16 -9 0 -14 -5 -12 -12z"/>
<path d="M1970 1685 c-10 -12 -10 -15 4 -15 9 0 16 7 16 15 0 8 -2 15 -4 15
-2 0 -9 -7 -16 -15z"/>
<path d="M170 1518 c0 -21 21 -38 48 -38 19 0 23 5 20 23 -2 17 -11 23 -35 25
-23 2 -33 -1 -33 -10z"/>
<path d="M1570 244 c0 -8 5 -12 10 -9 6 4 8 11 5 16 -9 14 -15 11 -15 -7z"/>
<path d="M735 231 c-7 -12 12 -24 25 -16 11 7 4 25 -10 25 -5 0 -11 -4 -15 -9z"/>
<path d="M836 175 c-16 -12 -17 -15 -4 -15 9 0 18 7 22 15 7 18 6 18 -18 0z"/>
<path d="M1342 188 c6 -18 28 -21 28 -4 0 9 -7 16 -16 16 -9 0 -14 -5 -12 -12z"/>
<path d="M1214 166 c-3 -8 -4 -25 -2 -38 4 -32 42 -32 46 0 6 38 -32 70 -44
38z"/>
</g>
</svg>
