<?xml version="1.0" standalone="no"?>
<!DOCTYPE svg PUBLIC "-//W3C//DTD SVG 20010904//EN"
 "http://www.w3.org/TR/2001/REC-SVG-20010904/DTD/svg10.dtd">
<svg version="1.0" xmlns="http://www.w3.org/2000/svg"
 width="572.000000pt" height="572.000000pt" viewBox="0 0 572.000000 572.000000"
 preserveAspectRatio="xMidYMid meet">

<g transform="translate(0.000000,572.000000) scale(0.100000,-0.100000)"
fill="#000000" stroke="none">
<path d="M2715 4353 c-22 -2 -55 -6 -72 -9 l-33 -5 0 -719 0 -720 80 0 80 0 0
730 c0 402 -3 729 -7 728 -5 -1 -26 -3 -48 -5z"/>
<path d="M2930 3631 l0 -731 75 0 75 0 0 725 0 725 -52 0 c-29 0 -63 3 -75 6
l-23 6 0 -731z"/>
<path d="M2437 4303 c-4 -3 -35 -15 -69 -27 l-63 -22 -3 -677 -2 -677 75 0 75
0 2 701 c2 385 0 703 -3 705 -3 2 -9 1 -12 -3z"/>
<path d="M3240 3605 l0 -705 80 0 80 0 0 674 0 674 -24 15 c-12 9 -40 19 -60
22 -20 4 -39 11 -42 16 -3 5 -12 9 -20 9 -12 0 -14 -98 -14 -705z"/>
<path d="M2064 4131 c-296 -198 -492 -451 -601 -776 -46 -135 -63 -219 -70
-343 l-6 -112 376 0 377 0 0 640 c0 352 -1 640 -2 639 -2 0 -35 -21 -74 -48z
m-334 -1106 c13 -39 -1 -77 -37 -100 -22 -15 -26 -14 -54 6 -24 17 -27 24 -18
35 9 11 9 18 -1 29 -18 22 -4 62 27 79 24 12 30 12 50 -1 12 -8 27 -29 33 -48z
m-172 -22 c-3 -70 -5 -78 -23 -78 -16 0 -21 8 -23 43 -2 28 -8 42 -18 42 -42
0 6 68 49 69 16 1 18 -7 15 -76z m304 18 c3 -30 2 -65 -3 -78 -9 -26 -34 -31
-46 -9 -4 8 -17 15 -28 17 -31 6 -30 45 1 90 19 28 33 39 48 37 17 -2 22 -13
28 -57z m145 43 c3 -8 1 -20 -5 -26 -8 -8 -6 -18 5 -35 19 -29 8 -62 -29 -82
-22 -11 -29 -11 -51 4 -29 19 -34 61 -15 123 9 29 13 32 49 32 27 0 42 -5 46
-16z"/>
<path d="M1665 3020 c3 -5 8 -10 11 -10 2 0 4 5 4 10 0 6 -5 10 -11 10 -5 0
-7 -4 -4 -10z"/>
<path d="M1945 2980 c-3 -5 -1 -10 4 -10 6 0 11 5 11 10 0 6 -2 10 -4 10 -3 0
-8 -4 -11 -10z"/>
<path d="M3560 3541 l0 -641 386 0 386 0 -5 53 c-10 112 -29 252 -37 262 -4 6
-11 28 -14 50 -12 66 -65 204 -123 315 -71 136 -159 254 -275 366 -91 88 -215
184 -237 184 -6 0 -11 4 -11 8 0 8 -14 16 -62 40 -5 2 -8 -285 -8 -637z"/>
<path d="M604 2744 c-210 -75 -222 -376 -17 -466 34 -15 43 -26 43 -55 0 -22
-3 -23 -142 -25 l-143 -3 -3 -47 -3 -47 341 -3 c188 -2 346 0 352 3 5 3 8 26
6 50 l-3 44 -142 3 -143 3 0 28 c0 24 7 33 43 51 55 29 83 55 115 109 21 37
26 58 27 115 0 60 -4 79 -30 124 -60 109 -185 157 -301 116z m139 -103 c37
-14 74 -59 87 -105 11 -42 0 -87 -32 -126 -47 -57 -137 -68 -195 -24 -138 105
-22 316 140 255z"/>
<path d="M3918 2733 l-3 -28 -93 -3 -93 -3 3 -47 3 -47 43 -3 c23 -2 42 -5 42
-6 0 -2 -7 -20 -15 -39 -65 -155 86 -325 243 -273 119 40 180 178 124 283 -17
31 -16 31 26 35 37 3 37 3 40 51 l3 47 -95 0 -95 0 -3 28 c-3 26 -6 27 -65 30
-61 3 -62 3 -65 -25z m148 -184 c23 -24 29 -39 29 -75 0 -39 -5 -50 -33 -75
-58 -52 -141 -33 -172 40 -16 39 -6 76 30 112 23 23 37 29 72 29 36 0 50 -6
74 -31z"/>
<path d="M1301 2702 c-15 -15 -72 -90 -126 -166 l-98 -139 39 -34 c21 -18 41
-33 44 -33 3 0 41 52 85 115 44 62 84 113 90 111 8 -2 107 -134 158 -210 13
-18 15 -18 58 13 24 18 43 37 41 43 -8 31 -225 317 -244 321 -14 4 -29 -3 -47
-21z"/>
<path d="M1697 2703 c-4 -3 -7 -100 -7 -215 l0 -209 58 3 57 3 3 78 3 77 44 0
45 0 0 45 0 45 -45 0 -45 0 0 74 c0 101 -3 106 -59 106 -26 0 -51 -3 -54 -7z"/>
<path d="M4350 2499 l0 -210 53 3 52 3 3 73 3 72 39 0 40 0 0 49 0 50 -37 3
-38 3 -3 83 -3 82 -54 0 -55 0 0 -211z"/>
<path d="M2860 2581 c0 -112 2 -122 24 -148 l24 -28 324 0 323 0 0 45 0 45
-290 5 -290 5 -3 47 -3 48 293 2 293 3 0 45 0 45 -347 3 -348 2 0 -119z"/>
<path d="M2002 2643 l3 -48 270 -5 270 -5 3 -153 3 -153 52 3 52 3 3 181 c2
173 2 181 -19 200 -20 18 -41 19 -331 22 l-309 3 3 -48z"/>
<path d="M4630 2645 c0 -19 0 -38 0 -42 0 -5 127 -10 282 -13 l283 -5 3 -157
3 -158 54 0 55 0 0 179 c0 165 -2 180 -21 205 l-20 26 -320 0 -319 0 0 -35z"/>
<path d="M2217 2394 c-4 -4 -7 -49 -7 -101 l0 -93 -126 0 -125 0 3 -47 3 -48
358 0 c198 0 363 3 369 6 5 3 8 24 6 45 l-3 39 -182 3 -182 2 -3 98 -3 97 -50
3 c-28 2 -54 0 -58 -4z"/>
<path d="M4767 2394 c-4 -4 -7 -51 -7 -105 l0 -98 -77 -3 -78 -3 0 -45 0 -45
370 0 370 0 0 45 0 45 -122 3 -122 3 -3 102 -3 102 -55 0 -55 0 -3 -102 -3
-103 -49 0 -49 0 -3 103 -3 102 -50 3 c-28 2 -54 0 -58 -4z"/>
<path d="M2834 2306 c-3 -8 -4 -29 -2 -48 l3 -33 98 -3 c53 -1 97 -6 97 -10 0
-4 -11 -29 -25 -56 -69 -137 7 -305 152 -337 106 -24 202 15 261 104 24 36 27
50 27 126 0 71 -4 92 -23 121 -12 19 -22 38 -22 42 0 4 42 9 93 10 l92 3 0 45
0 45 -373 3 c-314 2 -373 0 -378 -12z m484 -172 c80 -92 7 -235 -114 -221 -59
6 -92 30 -116 84 -19 43 -19 47 -4 88 20 52 54 85 98 94 53 12 100 -4 136 -45z"/>
<path d="M1475 2274 c-99 -35 -159 -122 -159 -228 1 -75 26 -129 84 -179 146
-125 374 -29 388 164 13 174 -151 301 -313 243z m154 -114 c85 -45 77 -191
-13 -234 -74 -35 -149 -9 -186 65 -28 53 -20 98 23 146 47 51 109 59 176 23z"/>
<path d="M3748 2175 c-2 -26 -1 -48 1 -51 2 -2 136 -4 297 -4 l293 0 3 -112 3
-113 53 -3 52 -3 0 144 c0 134 -2 145 -21 163 -20 18 -43 19 -349 22 l-328 3
-4 -46z"/>
</g>
</svg>
